# xmcd CD database file
#
# Track frame offsets:
#	150
#	177600
#	311850
#
# Disc length: 4452 seconds
#
# Revision: 0
# Processed by: cddbd v1.5.1PL0 Copyright (c) Steve Scherf et al.
# Submitted via: CDex 1.51
#
DISCID=27116203
DTITLE=Various Artist - The Mastermind Megamix Volume 3
DYEAR=1996
DGENRE=Mix
TTITLE0=Megadance Mix 3
TTITLE1=We Live as one Family Mix
TTITLE2=3.BBE - 7 Days and 1 Week Remix
EXTD=YEAR: 1996
EXTT0=
EXTT1=
EXTT2=
PLAYORDER=
